<svg xmlns="http://www.w3.org/2000/svg" viewBox="0 0 640 420" fill="none">
  <path d="M510 25c-43 67-96 108-168 134" stroke="#a85b34" stroke-width="7" stroke-linecap="round" opacity=".14"/>
  <g fill="#d7783d" opacity=".2">
    <path d="M420 92c24-25 43-32 57-21-3 14-17 31-43 49l-10-14-16 5 5-17-13-9 17-2 3-17 10 13 16-5-7 15 12 10-17 1-5 17-9-14Z"/>
    <path d="M542 135c19-20 34-25 45-17-2 12-14 25-34 39l-8-11-13 4 4-13-10-7 13-2 3-13 8 10 13-4-5 12 10 8-14 1-4 13-8-11Z"/>
    <path d="M112 290c21-22 38-28 51-18-3 13-16 27-38 43l-9-12-14 5 4-15-11-8 15-2 4-15 8 12 14-5-6 13 11 9-15 1-5 15-9-12Z"/>
  </g>
  <g fill="#9c6842" opacity=".12">
    <ellipse cx="480" cy="250" rx="16" ry="12"/>
    <path d="M469 250c0-22 22-31 29-12 5 14-8 34-18 38-9-5-12-16-11-26Z"/>
    <ellipse cx="195" cy="110" rx="12" ry="9"/>
    <path d="M187 110c0-17 17-24 22-9 4 11-6 26-14 29-7-4-9-12-8-20Z"/>
  </g>
</svg>
