<svg xmlns="http://www.w3.org/2000/svg" viewBox="0 0 640 420" fill="none">
  <path d="M470 20c-22 54-61 90-118 120-38 20-74 45-111 83" stroke="#c9798f" stroke-width="7" stroke-linecap="round" opacity=".18"/>
  <path d="M475 25c29 42 63 68 116 83" stroke="#c9798f" stroke-width="5" stroke-linecap="round" opacity=".14"/>
  <g fill="#f09ab0" opacity=".22">
    <ellipse cx="389" cy="111" rx="12" ry="24" transform="rotate(36 389 111)"/>
    <ellipse cx="412" cy="105" rx="12" ry="24" transform="rotate(104 412 105)"/>
    <ellipse cx="406" cy="130" rx="12" ry="24" transform="rotate(174 406 130)"/>
    <ellipse cx="378" cy="134" rx="12" ry="24" transform="rotate(244 378 134)"/>
    <ellipse cx="367" cy="111" rx="12" ry="24" transform="rotate(310 367 111)"/>
    <ellipse cx="525" cy="77" rx="9" ry="18" transform="rotate(30 525 77)"/>
    <ellipse cx="542" cy="74" rx="9" ry="18" transform="rotate(98 542 74)"/>
    <ellipse cx="538" cy="93" rx="9" ry="18" transform="rotate(168 538 93)"/>
    <ellipse cx="517" cy="96" rx="9" ry="18" transform="rotate(238 517 96)"/>
    <ellipse cx="509" cy="78" rx="9" ry="18" transform="rotate(304 509 78)"/>
  </g>
  <g fill="#e1849d" opacity=".13">
    <ellipse cx="95" cy="326" rx="8" ry="15" transform="rotate(38 95 326)"/>
    <ellipse cx="150" cy="270" rx="7" ry="14" transform="rotate(72 150 270)"/>
    <ellipse cx="215" cy="350" rx="9" ry="17" transform="rotate(112 215 350)"/>
    <ellipse cx="560" cy="302" rx="8" ry="16" transform="rotate(30 560 302)"/>
  </g>
</svg>
