<svg xmlns="http://www.w3.org/2000/svg" viewBox="0 0 640 420" fill="none">
  <g stroke="#4eb5d3" stroke-width="4" stroke-linecap="round" opacity=".15">
    <path d="M16 318c56-32 112-32 168 0s112 32 168 0 112-32 168 0 80 32 104 20"/>
    <path d="M-24 344c56-32 112-32 168 0s112 32 168 0 112-32 168 0 112 32 168 0"/>
    <path d="M-8 372c56-32 112-32 168 0s112 32 168 0 112-32 168 0 112 32 168 0"/>
  </g>
  <g stroke="#64cbd0" opacity=".18">
    <circle cx="508" cy="86" r="42" stroke-width="4"/>
    <circle cx="552" cy="152" r="18" stroke-width="3"/>
    <circle cx="451" cy="155" r="13" stroke-width="3"/>
    <circle cx="105" cy="105" r="24" stroke-width="3"/>
    <circle cx="66" cy="165" r="10" stroke-width="2"/>
  </g>
  <path d="M82 63c28-26 55-31 81-14-24 1-40 12-50 32-7-13-17-19-31-18Z" fill="#43a7c9" opacity=".12"/>
  <path d="M174 84c24-20 46-23 68-9-19 0-33 9-42 25-5-10-14-16-26-16Z" fill="#43a7c9" opacity=".1"/>
</svg>
