<svg xmlns="http://www.w3.org/2000/svg" viewBox="0 0 640 420" fill="none">
  <g stroke="#7188cf" stroke-linecap="round" opacity=".17">
    <g transform="translate(505 95)" stroke-width="4">
      <path d="M0-42V42M-36-21l72 42M-36 21l72-42"/>
      <path d="m0-42-8 10m8-10 8 10M0 42l-8-10m8 10 8-10M-36-21l13 1m-13-1 5-12M36 21l-13-1m13 1-5 12M-36 21l13-1m-13 1 5 12M36-21l-13 1m13-1-5-12"/>
    </g>
    <g transform="translate(128 300) scale(.7)" stroke-width="4">
      <path d="M0-42V42M-36-21l72 42M-36 21l72-42"/>
      <path d="m0-42-8 10m8-10 8 10M0 42l-8-10m8 10 8-10M-36-21l13 1m-13-1 5-12M36 21l-13-1m13 1-5 12M-36 21l13-1m-13 1 5 12M36-21l-13 1m13-1-5-12"/>
    </g>
  </g>
  <g fill="#87a4de" opacity=".14">
    <circle cx="190" cy="82" r="6"/>
    <circle cx="270" cy="142" r="4"/>
    <circle cx="389" cy="245" r="7"/>
    <circle cx="560" cy="315" r="5"/>
    <circle cx="72" cy="175" r="5"/>
  </g>
  <path d="M0 382c88-46 176-46 264 0s176 46 264 0 176-46 264 0" stroke="#8da9df" stroke-width="7" stroke-linecap="round" opacity=".09"/>
</svg>
